<?xml version="1.0" encoding="UTF-8"?>
<svg id="_Слой_1" data-name="Слой_1" xmlns="http://www.w3.org/2000/svg" version="1.1" xmlns:xlink="http://www.w3.org/1999/xlink" viewBox="0 0 664.7 518.6">
  <!-- Generator: Adobe Illustrator 29.2.1, SVG Export Plug-In . SVG Version: 2.1.0 Build 116)  -->
  <defs>
    <linearGradient id="linear-gradient" x1="448.1" y1="228" x2="602.5" y2="228" gradientTransform="translate(0 517.9) scale(1 -1)" gradientUnits="userSpaceOnUse">
      <stop offset="0" stop-color="#96cbff"/>
      <stop offset="1" stop-color="#59f"/>
    </linearGradient>
    <linearGradient id="linear-gradient1" x1="-101.5" y1="-339.8" x2="13.8" y2="-339.8" gradientTransform="translate(211.2 -153.5) rotate(-5.9) scale(1 -1)" gradientUnits="userSpaceOnUse">
      <stop offset="0" stop-color="#96cbff"/>
      <stop offset="1" stop-color="#59f"/>
    </linearGradient>
    <clipPath id="clippath">
      <rect x="91.9" y="315.8" width="308.1" height="4.9" fill="none"/>
    </clipPath>
    <clipPath id="clippath-1">
      <rect x="91.9" y="315.8" width="308.1" height="4.9" fill="none"/>
    </clipPath>
    <clipPath id="clippath-2">
      <rect x="91.9" y="315.8" width="308.1" height="4.9" fill="none"/>
    </clipPath>
    <clipPath id="clippath-3">
      <rect x="91.9" y="315.8" width="308.1" height="4.9" fill="none"/>
    </clipPath>
    <clipPath id="clippath-4">
      <rect x="91.9" y="315.8" width="308.1" height="4.9" fill="none"/>
    </clipPath>
    <clipPath id="clippath-5">
      <rect x="91.9" y="315.8" width="308.1" height="4.9" fill="none"/>
    </clipPath>
    <clipPath id="clippath-6">
      <rect x="91.9" y="315.8" width="308.1" height="4.9" fill="none"/>
    </clipPath>
    <clipPath id="clippath-7">
      <rect x="91.9" y="315.8" width="308.1" height="4.9" fill="none"/>
    </clipPath>
    <clipPath id="clippath-8">
      <rect x="91.9" y="315.8" width="308.1" height="4.9" fill="none"/>
    </clipPath>
    <clipPath id="clippath-9">
      <rect x="91.9" y="315.8" width="308.1" height="4.9" fill="none"/>
    </clipPath>
    <clipPath id="clippath-10">
      <rect x="91.9" y="315.8" width="308.1" height="4.9" fill="none"/>
    </clipPath>
    <clipPath id="clippath-11">
      <rect x="91.9" y="315.8" width="308.1" height="4.9" fill="none"/>
    </clipPath>
    <clipPath id="clippath-12">
      <rect x="91.9" y="315.8" width="308.1" height="4.9" fill="none"/>
    </clipPath>
    <clipPath id="clippath-13">
      <rect x="91.9" y="315.8" width="308.1" height="4.9" fill="none"/>
    </clipPath>
    <clipPath id="clippath-14">
      <rect x="91.9" y="315.8" width="308.1" height="4.9" fill="none"/>
    </clipPath>
    <clipPath id="clippath-15">
      <rect x="91.9" y="315.8" width="308.1" height="4.9" fill="none"/>
    </clipPath>
    <clipPath id="clippath-16">
      <rect x="91.9" y="315.8" width="308.1" height="4.9" fill="none"/>
    </clipPath>
    <clipPath id="clippath-17">
      <rect x="91.9" y="315.8" width="308.1" height="4.9" fill="none"/>
    </clipPath>
    <clipPath id="clippath-18">
      <rect x="91.9" y="315.8" width="308.1" height="4.9" fill="none"/>
    </clipPath>
    <clipPath id="clippath-19">
      <rect x="91.9" y="315.8" width="308.1" height="4.9" fill="none"/>
    </clipPath>
    <clipPath id="clippath-20">
      <rect x="91.9" y="315.8" width="308.1" height="4.9" fill="none"/>
    </clipPath>
    <clipPath id="clippath-21">
      <rect x="91.9" y="315.8" width="308.1" height="4.9" fill="none"/>
    </clipPath>
    <clipPath id="clippath-22">
      <rect x="91.9" y="315.8" width="308.1" height="4.9" fill="none"/>
    </clipPath>
    <clipPath id="clippath-23">
      <rect x="91.9" y="315.8" width="308.1" height="4.9" fill="none"/>
    </clipPath>
    <clipPath id="clippath-24">
      <rect x="91.9" y="315.8" width="308.1" height="4.9" fill="none"/>
    </clipPath>
    <clipPath id="clippath-25">
      <rect x="91.9" y="315.8" width="308.1" height="4.9" fill="none"/>
    </clipPath>
    <clipPath id="clippath-26">
      <rect x="91.9" y="315.8" width="308.1" height="4.9" fill="none"/>
    </clipPath>
    <clipPath id="clippath-27">
      <rect x="91.9" y="315.8" width="308.1" height="4.9" fill="none"/>
    </clipPath>
    <clipPath id="clippath-28">
      <rect x="91.9" y="315.8" width="308.1" height="4.9" fill="none"/>
    </clipPath>
    <clipPath id="clippath-29">
      <rect x="91.9" y="315.8" width="308.1" height="4.9" fill="none"/>
    </clipPath>
    <clipPath id="clippath-30">
      <rect x="91.9" y="315.8" width="308.1" height="4.9" fill="none"/>
    </clipPath>
    <clipPath id="clippath-31">
      <rect x="91.9" y="315.8" width="308.1" height="4.9" fill="none"/>
    </clipPath>
    <clipPath id="clippath-32">
      <rect x="91.9" y="315.8" width="308.1" height="4.9" fill="none"/>
    </clipPath>
    <clipPath id="clippath-33">
      <rect x="91.9" y="315.8" width="308.1" height="4.9" fill="none"/>
    </clipPath>
    <clipPath id="clippath-34">
      <rect x="91.9" y="315.8" width="308.1" height="4.9" fill="none"/>
    </clipPath>
    <clipPath id="clippath-35">
      <rect x="91.9" y="315.8" width="308.1" height="4.9" fill="none"/>
    </clipPath>
    <clipPath id="clippath-36">
      <rect x="91.9" y="315.8" width="308.1" height="4.9" fill="none"/>
    </clipPath>
    <clipPath id="clippath-37">
      <rect x="91.9" y="315.8" width="308.1" height="4.9" fill="none"/>
    </clipPath>
    <clipPath id="clippath-38">
      <rect x="91.9" y="315.8" width="308.1" height="4.9" fill="none"/>
    </clipPath>
    <clipPath id="clippath-39">
      <rect x="91.9" y="315.8" width="308.1" height="4.9" fill="none"/>
    </clipPath>
    <clipPath id="clippath-40">
      <rect x="91.9" y="315.8" width="308.1" height="4.9" fill="none"/>
    </clipPath>
    <clipPath id="clippath-41">
      <rect x="91.9" y="315.8" width="308.1" height="4.9" fill="none"/>
    </clipPath>
    <clipPath id="clippath-42">
      <rect x="91.9" y="315.8" width="308.1" height="4.9" fill="none"/>
    </clipPath>
    <clipPath id="clippath-43">
      <rect x="91.9" y="315.8" width="308.1" height="4.9" fill="none"/>
    </clipPath>
    <clipPath id="clippath-44">
      <rect x="91.9" y="315.8" width="308.1" height="4.9" fill="none"/>
    </clipPath>
    <clipPath id="clippath-45">
      <rect x="91.9" y="315.8" width="308.1" height="4.9" fill="none"/>
    </clipPath>
    <clipPath id="clippath-46">
      <rect x="91.9" y="315.8" width="308.1" height="4.9" fill="none"/>
    </clipPath>
    <clipPath id="clippath-47">
      <rect x="91.9" y="315.8" width="308.1" height="4.9" fill="none"/>
    </clipPath>
    <clipPath id="clippath-48">
      <rect x="91.9" y="315.8" width="308.1" height="4.9" fill="none"/>
    </clipPath>
    <clipPath id="clippath-49">
      <rect x="91.9" y="315.8" width="308.1" height="4.9" fill="none"/>
    </clipPath>
    <clipPath id="clippath-50">
      <rect x="91.9" y="315.8" width="308.1" height="4.9" fill="none"/>
    </clipPath>
    <clipPath id="clippath-51">
      <rect x="91.9" y="315.8" width="308.1" height="4.9" fill="none"/>
    </clipPath>
    <clipPath id="clippath-52">
      <rect x="91.9" y="315.8" width="308.1" height="4.9" fill="none"/>
    </clipPath>
    <clipPath id="clippath-53">
      <rect x="91.9" y="315.8" width="308.1" height="4.9" fill="none"/>
    </clipPath>
    <clipPath id="clippath-54">
      <rect x="91.9" y="315.8" width="308.1" height="4.9" fill="none"/>
    </clipPath>
    <clipPath id="clippath-55">
      <rect x="91.9" y="315.8" width="308.1" height="4.9" fill="none"/>
    </clipPath>
    <clipPath id="clippath-56">
      <rect x="91.9" y="315.8" width="308.1" height="4.9" fill="none"/>
    </clipPath>
    <clipPath id="clippath-57">
      <rect x="91.9" y="315.8" width="308.1" height="4.9" fill="none"/>
    </clipPath>
    <clipPath id="clippath-58">
      <rect x="91.9" y="315.8" width="308.1" height="4.9" fill="none"/>
    </clipPath>
    <clipPath id="clippath-59">
      <rect x="91.9" y="315.8" width="308.1" height="4.9" fill="none"/>
    </clipPath>
    <clipPath id="clippath-60">
      <rect x="91.9" y="315.8" width="308.1" height="4.9" fill="none"/>
    </clipPath>
    <clipPath id="clippath-61">
      <rect x="91.9" y="315.8" width="308.1" height="4.9" fill="none"/>
    </clipPath>
    <clipPath id="clippath-62">
      <rect x="91.9" y="315.8" width="308.1" height="4.9" fill="none"/>
    </clipPath>
    <clipPath id="clippath-63">
      <rect x="91.9" y="315.8" width="308.1" height="4.9" fill="none"/>
    </clipPath>
    <clipPath id="clippath-64">
      <rect x="91.9" y="315.8" width="308.1" height="4.9" fill="none"/>
    </clipPath>
    <clipPath id="clippath-65">
      <rect x="91.9" y="315.8" width="308.1" height="4.9" fill="none"/>
    </clipPath>
    <clipPath id="clippath-66">
      <rect x="91.9" y="315.8" width="308.1" height="4.9" fill="none"/>
    </clipPath>
  </defs>
  <path d="M582.3,324.1c3.2-5.4,5.6-11.1,7.2-17l12.8-2.4v-14.1c.1,0,.3-14.1.3-14.1l-12.7-2.7c-1.5-5.9-3.8-11.7-6.9-17.1l7.3-10.7-9.9-10.1-9.9-10.1-10.9,7.1c-5.4-3.2-11.1-5.6-17-7.2l-2.4-12.8h-14.1c0-.1-14.1-.3-14.1-.3l-2.7,12.7c-5.9,1.5-11.7,3.8-17.1,6.9l-10.7-7.3-10.1,9.9-10.1,9.9,7.1,10.9c-3.2,5.4-5.6,11.1-7.2,17l-12.8,2.4v14.1c-.1,0-.3,14.1-.3,14.1l12.7,2.7c1.5,5.9,3.8,11.7,6.9,17.1l-7.3,10.7,9.9,10.1,9.9,10.1,10.9-7.1c5.4,3.2,11.1,5.6,17,7.2l2.4,12.8h14.1c0,.1,14.1.3,14.1.3l2.7-12.7c5.9-1.5,11.7-3.8,17.1-6.9l10.7,7.3,10.1-9.9,10.1-9.9-7.1-10.9ZM500.6,314.1c-13.4-13.6-13.2-35.5.5-48.9,13.6-13.4,35.5-13.2,48.9.5,13.4,13.6,13.2,35.5-.5,48.9-13.6,13.4-35.5,13.2-48.9-.5Z" fill="url(#linear-gradient)"/>
  <path d="M247.2,210.2c2-4.2,3.3-8.7,4.1-13.2l9.3-2.8-1-10.5-1-10.5-9.6-1c-1.5-4.3-3.7-8.4-6.4-12.2l4.6-8.5-8.1-6.7-8.1-6.7-7.5,6.1c-4.2-2-8.7-3.3-13.2-4.1l-2.8-9.3-10.5,1-10.5,1-1,9.6c-4.3,1.5-8.4,3.7-12.2,6.4l-8.5-4.6-6.7,8.1-6.7,8.1,6.1,7.5c-2,4.2-3.3,8.7-4.1,13.2l-9.3,2.8,1,10.5,1,10.5,9.6,1c1.5,4.3,3.7,8.4,6.4,12.2l-4.6,8.5,8.1,6.7,8.1,6.7,7.5-6.1c4.2,2,8.7,3.3,13.2,4.1l2.8,9.3,10.5-1,10.5-1,1-9.6c4.3-1.5,8.4-3.7,12.2-6.4l8.5,4.6,6.7-8.1,6.7-8.1-6.1-7.5ZM185.8,209c-11-9.1-12.5-25.4-3.4-36.4,9.1-11,25.4-12.5,36.4-3.4,11,9.1,12.5,25.4,3.4,36.4-9.1,11-25.4,12.5-36.4,3.4Z" fill="url(#linear-gradient1)"/>
  <path d="M558.5,422.4h-.9v-62.9c0-14-11.4-25.4-25.4-25.4h-64.7c-14.5,0-26.3-11.8-26.3-26.3v-117.5c0-14-11.4-25.4-25.4-25.4h-164.9v-.9h164.9c14.5,0,26.3,11.8,26.3,26.3v117.5c0,14,11.4,25.4,25.4,25.4h64.7c14.5,0,26.3,11.8,26.3,26.3v62.9h0Z" fill="#64a4ff"/>
  <g>
    <path d="M293.3,124.3s10,39.7-14,50.6c-24,10.9-19.4-9-19.4-9,0,0-9.8-2.7,16.9-17.9,12.6-7.1,16.4-23.7,16.4-23.7Z" fill="#bbd070"/>
    <path d="M356.1,127.8s4.9,34.6-40.4,49.6c-45.4,15-51.8,34-51.8,34,0,0-1.4-76.8,92.3-83.6Z" fill="#97a43c"/>
    <path d="M263.6,197.3c-13.4-5.1,18.5-32.7,43.1-31.9,24.6.7,41.2,9.8,57.7,6,0,0-34.5,51.2-100.8,25.9Z" fill="#48753a"/>
  </g>
  <g>
    <path d="M308.8,220.3c.8-10.4,1.3-20.2,1.6-29.3-2.5-1.3-5.6-2.9-8-4-7.5-3.6-18-8.4-24.7-11.5-3.9-1.8-7.8-3.1-7.8-3.1,0,0-26.8-2.6-29-2.4-.7,0-4,1.2-8.4,2.9-9.5,3.6-27.8,11-30.8,13.1-4.3,3.1-19.6,78.2-20,83.3-.4,5,20.8,11.7,40.5,16.9,0,7.6-.2,18.3-.3,28,0,1.7,0,3.3,0,4.9h86c-.1-1.7-.2-3.3-.3-4.9,0-.2,0-.4,0-.6-.3-6.6-1.6-18.4-1.3-29.9,0,0-.2-12.1,1-17.3.1-23.1,1.5-45.9,1.5-45.9ZM199.7,264.4c.1-9.8,13.2-28,13.2-28,0,0,.6-.3.6-.2,0,0,.7,0,.7,0,0,0,2-1.9,2-1.9.5,1.7,4.8,26.3,5.8,40.6-12.2-2.4-22.4-5.7-22.3-10.4Z" fill="#dbd8e3"/>
    <path d="M310.4,314c-.6-4.1-1.1-8.1-1.6-12.1,0,0,0,0,0,0-.2-1.3-.3-2.6-.5-3.9,0,0,0-.1,0-.2-.6-5.5-1.1-10.8-1.5-15.6-.3-3.7,0-7.3.5-10.8,1.5-24.7,2.2-50.6,2.2-50.6.8-10.6,1.2-20.6,1.5-29.9,0,0-33.7-15.9-36.7-16.8,0,0,6.4,15,11.2,48.5,1.8,12.9,5.3,34.6,7.7,56.7h0c1.3,11.9,3.9,24.1,5.8,34.9.3,1.7.6,3.3.8,4.9h11.3c-.2-1.6-.5-3.3-.7-4.9Z" fill="#323657"/>
    <path d="M254.3,274.4c1.3-12.5,2.5-24.9,1.9-31.7-4.6-54.8-17.8-69.3-19.7-71.4-1.5.6-7.1,2.7-8.7,3.3-9,3.5-27.3,10-29.8,11.8-4.3,3.1-21.2,81.8-21.7,86.9-.3,3.4,21.7,10.6,44.2,17.1-.2,6.2.4,14.9-1.7,23.9-.4,1.6-.9,2.6-1,4.8h31.3c.2-1.7.4-3.4.6-5,.6-4.9,1.2-9.9,1.8-15.2,9.4,2.4,15.8,4,15.8,4,0,0,8.8-14.9,11.4-21,.4-1-10.9-3.8-24.5-7.4ZM213.8,255.5c-.3-11.2-.2-19-.2-19,1.1,3.8,2.6,14.8,4,25.7-4.6-2.3-3.7-4.4-3.8-6.7Z" fill="#323657"/>
    <path d="M239.6,170.7s3.4-6.4,2.5-24.7c-.3-5.1,26.6,12,26.6,12,0,0,0,1.7-.2,4.1,0,1,0,2.1,0,3.2s0,.6,0,.9c0,.5,0,1,0,1.5,0,.6,0,1.2,0,1.8,0,.7,0,1.3.1,1.9.1,1.1.8,3.1,1,3.6,1.2,2.8-20.1,3-30.1-4.2Z" fill="#eea987"/>
    <path d="M262.2,182.4l5,6.7s-2.9,3.9-8.1,1l3.1-7.7Z" fill="#e8734d"/>
    <path d="M265.8,189.3s18.2,44.3,14.3,100.7l-5.7,10.4-6.5-8.9s-1-74.8-6.2-102.4l4.1.2Z" fill="#e8734d"/>
    <path d="M267.5,176.1l-5.3,6.2s-8.5-1.6-11-6.1c-2.5-4.4,16.3-.1,16.3-.1Z" fill="#eea987"/>
    <path d="M268.7,170.7s-.6,4.7-6.5,11.6l6.4,8.7,3.5-18-3.4-2.3Z" fill="#c4c1cc"/>
    <path d="M241.2,165s12.3,13.9,20.9,17.3l-4,9.9-19.7-21.7,2.7-5.6Z" fill="#c4c1cc"/>
    <path d="M367.8,291s-16.3-15.9-27.1-18.5c-5-1.2-11.5-8.1-17.7-16.1-2-2.6-4-5.4-6-8.2,0,0,0,0,0,0-7.6-11-13.6-21.5-13.6-21.5,0,0-22.5-26.4-4.4-38.1,0,0,7.7-.2,12,2.1,4.4,2.4,13.7,21.8,15.2,25.2,1.6,3.4,18.7,35.4,19.8,36.1,1.1.7,3.1,3.3,9.9,7,8.4,4.5,21.5,17.7,21.5,17.7l-9.7,14.2Z" fill="#323657"/>
    <path d="M289.4,309.4s-2.3,0-3.3-.6c0,0-1.7-1.1-3-1.8-.4-.2-.8-.4-1-.5-1-.4-3.3-1-5.5-2.6-2.1-1.6-9.2-8.2-9.2-8.2l4.5-7,2.1-6.9s16.3,1.6,18.5,2.9c.2.1.4.3.6.4,1.7,1.3,2.5,3,3.3,3.7.3.3,3.1,3.3,3,4.6-.2,1.7-1.1,2.8-2.1,3.3,0,0-.6,3.3-2.3,4.8,0,0-.4,3.1-3.1,4.3,0,0-.8,3.1-2.6,3.5Z" fill="#efaa88"/>
    <path d="M263.3,98.7s29.5-7.1,23.3,30.3c-6.2,37.4-13.3,40.4-31.3,33-18-7.5-16.7-31.4-17.8-43.1-1.1-11.7,16.3-19.6,25.8-20.2Z" fill="#eea886"/>
    <path d="M247.8,124.6c-.4-3.3-7-4.4-7.4.5s3.2,13.5,5.6,12.7c2.5-.9,2.4-8.7,1.8-13.2Z" fill="#eea886"/>
    <path d="M239.3,138s.6-11.8,4.9-12.2c4.3-.4,5,4.3,5,4.3l4.3.8s-1.5-10.3,2.7-12.1c4.3-1.9,27.8,5.3,31.2,2.2,3.4-3.1,1.5-23.9-4.8-26.7s-23.5-8.9-36-.2c0,0-9.8-1-11.2,7-1.3,7.9,1,31.2,3.7,37Z" fill="#16202e"/>
    <path d="M279.7,281.8l-12.2,21s-32.3-8.3-39.8-10.4l17.2-20.5s25.4,5.8,34.8,10Z" fill="#323657"/>
    <path d="M268.6,169.5h0c-15.8-1.6-22-13.8-22-13.8,10,9.9,21.9,9.6,21.9,9.6,0,.3,0,.6,0,.9,0,.5,0,1,0,1.5,0,.6,0,1.2,0,1.8Z" fill="#a77860"/>
  </g>
  <path d="M487.3,355.3c-.9-1.1-2.2-1.9-3.8-1.9-2.1,0-4,1.3-4.6,3.3h0c-.2.5-.2,1-.3,1.5,0,.6,0,1.2.3,1.7.3.9.9,1.6,1.6,2.2.7.5,1.6.9,2.5,1,.1,0,.3,0,.4,0,0,0,.2,0,.2,0,0,0,0,0,0,0,.5,0,.9-.1,1.4-.3,1.8-.7,3.1-2.4,3.2-4.5,0-1.1-.3-2.1-1-3ZM484.7,361.6h0c-.3.1-.7.2-1,.2h0c0,0-.2,0-.2,0-.3,0-.7,0-1-.2-.4-.1-.8-.3-1.2-.6-.1,0-.2-.2-.4-.3-.7-.7-1.1-1.6-1-2.6,0-.3,0-.5,0-.8,0-.1,0-.2,0-.4.5-1.4,1.9-2.5,3.5-2.5,1.2,0,2.2.6,2.8,1.4.5.6.8,1.4.7,2.2,0,1.5-1,2.9-2.4,3.3Z" fill="#4da8f2"/>
  <path d="M302.6,264.6c18.4,18.9,42.6,42.7,42.6,42.7l9.5-18s-21.5-25.3-36.1-42.1c-4.5,2.2-12.7,7.4-15.9,17.4Z" fill="#eea886"/>
  <path d="M291.3,290s4.9,2.4,6.2,3.5c1.3,1.1,6.5,5,7.8,5.9,1.3.9-1.9,3.5-11.3-.5-9.3-4-2.8-8.8-2.8-8.8Z" fill="#eea886"/>
  <polygon points="291.7 235.9 283.1 316 396.5 316 405.1 235.9 291.7 235.9" fill="#ffc955"/>
  <path d="M402.9,312.3h-114.3l8.7-81h114.3l-8.7,81ZM289.6,311.4h112.5l8.5-79.2h-112.5l-8.5,79.2Z" fill="#ffc955"/>
  <rect x="274.1" y="308.8" width="18.9" height="7.2" fill="#ffc955"/>
  <g>
    <g clip-path="url(#clippath)">
      <path d="M91.9,315.8v4.9-4.9Z" fill="#96cbff"/>
    </g>
    <g clip-path="url(#clippath-1)">
      <rect x="91.9" y="315.8" width="4.7" height="4.9" fill="#96cbff"/>
    </g>
    <g clip-path="url(#clippath-2)">
      <rect x="96.6" y="315.8" width="4.7" height="4.9" fill="#95caff"/>
    </g>
    <g clip-path="url(#clippath-3)">
      <rect x="101.4" y="315.8" width="4.7" height="4.9" fill="#94c9ff"/>
    </g>
    <g clip-path="url(#clippath-4)">
      <rect x="106.1" y="315.8" width="4.7" height="4.9" fill="#93c9ff"/>
    </g>
    <g clip-path="url(#clippath-5)">
      <rect x="110.9" y="315.8" width="4.7" height="4.9" fill="#92c8ff"/>
    </g>
    <g clip-path="url(#clippath-6)">
      <rect x="115.6" y="315.8" width="4.7" height="4.9" fill="#91c7ff"/>
    </g>
    <g clip-path="url(#clippath-7)">
      <rect x="120.3" y="315.8" width="4.7" height="4.9" fill="#90c6ff"/>
    </g>
    <g clip-path="url(#clippath-8)">
      <rect x="125.1" y="315.8" width="4.7" height="4.9" fill="#8fc6ff"/>
    </g>
    <g clip-path="url(#clippath-9)">
      <rect x="129.8" y="315.8" width="4.7" height="4.9" fill="#8ec5ff"/>
    </g>
    <g clip-path="url(#clippath-10)">
      <rect x="134.6" y="315.8" width="4.7" height="4.9" fill="#8dc4ff"/>
    </g>
    <g clip-path="url(#clippath-11)">
      <rect x="139.3" y="315.8" width="4.7" height="4.9" fill="#8cc3ff"/>
    </g>
    <g clip-path="url(#clippath-12)">
      <rect x="144" y="315.8" width="4.7" height="4.9" fill="#8bc2ff"/>
    </g>
    <g clip-path="url(#clippath-13)">
      <rect x="148.8" y="315.8" width="4.7" height="4.9" fill="#8ac2ff"/>
    </g>
    <g clip-path="url(#clippath-14)">
      <rect x="153.5" y="315.8" width="4.7" height="4.9" fill="#89c1ff"/>
    </g>
    <g clip-path="url(#clippath-15)">
      <rect x="158.3" y="315.8" width="4.7" height="4.9" fill="#88c0ff"/>
    </g>
    <g clip-path="url(#clippath-16)">
      <rect x="163" y="315.8" width="4.7" height="4.9" fill="#87bfff"/>
    </g>
    <g clip-path="url(#clippath-17)">
      <rect x="167.7" y="315.8" width="4.7" height="4.9" fill="#86bfff"/>
    </g>
    <g clip-path="url(#clippath-18)">
      <rect x="172.5" y="315.8" width="4.7" height="4.9" fill="#85beff"/>
    </g>
    <g clip-path="url(#clippath-19)">
      <rect x="177.2" y="315.8" width="4.7" height="4.9" fill="#84bdff"/>
    </g>
    <g clip-path="url(#clippath-20)">
      <rect x="182" y="315.8" width="4.7" height="4.9" fill="#83bcff"/>
    </g>
    <g clip-path="url(#clippath-21)">
      <rect x="186.7" y="315.8" width="4.7" height="4.9" fill="#82bbff"/>
    </g>
    <g clip-path="url(#clippath-22)">
      <rect x="191.4" y="315.8" width="4.7" height="4.9" fill="#81bbff"/>
    </g>
    <g clip-path="url(#clippath-23)">
      <rect x="196.2" y="315.8" width="4.7" height="4.9" fill="#80baff"/>
    </g>
    <g clip-path="url(#clippath-24)">
      <rect x="200.9" y="315.8" width="4.7" height="4.9" fill="#7fb9ff"/>
    </g>
    <g clip-path="url(#clippath-25)">
      <rect x="205.7" y="315.8" width="4.7" height="4.9" fill="#7eb8ff"/>
    </g>
    <g clip-path="url(#clippath-26)">
      <rect x="210.4" y="315.8" width="4.7" height="4.9" fill="#7db7ff"/>
    </g>
    <g clip-path="url(#clippath-27)">
      <rect x="215.1" y="315.8" width="4.7" height="4.9" fill="#7cb7ff"/>
    </g>
    <g clip-path="url(#clippath-28)">
      <rect x="219.9" y="315.8" width="4.7" height="4.9" fill="#7bb6ff"/>
    </g>
    <g clip-path="url(#clippath-29)">
      <rect x="224.6" y="315.8" width="4.7" height="4.9" fill="#7ab5ff"/>
    </g>
    <g clip-path="url(#clippath-30)">
      <rect x="229.4" y="315.8" width="4.7" height="4.9" fill="#79b4ff"/>
    </g>
    <g clip-path="url(#clippath-31)">
      <rect x="234.1" y="315.8" width="4.7" height="4.9" fill="#78b4ff"/>
    </g>
    <g clip-path="url(#clippath-32)">
      <rect x="238.8" y="315.8" width="4.7" height="4.9" fill="#77b3ff"/>
    </g>
    <g clip-path="url(#clippath-33)">
      <rect x="243.6" y="315.8" width="4.7" height="4.9" fill="#76b2ff"/>
    </g>
    <g clip-path="url(#clippath-34)">
      <rect x="248.3" y="315.8" width="4.7" height="4.9" fill="#74b1ff"/>
    </g>
    <g clip-path="url(#clippath-35)">
      <rect x="253.1" y="315.8" width="4.7" height="4.9" fill="#73b0ff"/>
    </g>
    <g clip-path="url(#clippath-36)">
      <rect x="257.8" y="315.8" width="4.7" height="4.9" fill="#72b0ff"/>
    </g>
    <g clip-path="url(#clippath-37)">
      <rect x="262.5" y="315.8" width="4.7" height="4.9" fill="#71afff"/>
    </g>
    <g clip-path="url(#clippath-38)">
      <rect x="267.3" y="315.8" width="4.7" height="4.9" fill="#70aeff"/>
    </g>
    <g clip-path="url(#clippath-39)">
      <rect x="272" y="315.8" width="4.7" height="4.9" fill="#6fadff"/>
    </g>
    <g clip-path="url(#clippath-40)">
      <rect x="276.8" y="315.8" width="4.7" height="4.9" fill="#6eadff"/>
    </g>
    <g clip-path="url(#clippath-41)">
      <rect x="281.5" y="315.8" width="4.7" height="4.9" fill="#6dacff"/>
    </g>
    <g clip-path="url(#clippath-42)">
      <rect x="286.2" y="315.8" width="4.7" height="4.9" fill="#6cabff"/>
    </g>
    <g clip-path="url(#clippath-43)">
      <rect x="291" y="315.8" width="4.7" height="4.9" fill="#6baaff"/>
    </g>
    <g clip-path="url(#clippath-44)">
      <rect x="295.7" y="315.8" width="4.7" height="4.9" fill="#6aa9ff"/>
    </g>
    <g clip-path="url(#clippath-45)">
      <rect x="300.5" y="315.8" width="4.7" height="4.9" fill="#69a9ff"/>
    </g>
    <g clip-path="url(#clippath-46)">
      <rect x="305.2" y="315.8" width="4.7" height="4.9" fill="#68a8ff"/>
    </g>
    <g clip-path="url(#clippath-47)">
      <rect x="309.9" y="315.8" width="4.7" height="4.9" fill="#67a7ff"/>
    </g>
    <g clip-path="url(#clippath-48)">
      <rect x="314.7" y="315.8" width="4.7" height="4.9" fill="#66a6ff"/>
    </g>
    <g clip-path="url(#clippath-49)">
      <rect x="319.4" y="315.8" width="4.7" height="4.9" fill="#65a6ff"/>
    </g>
    <g clip-path="url(#clippath-50)">
      <rect x="324.2" y="315.8" width="4.7" height="4.9" fill="#64a5ff"/>
    </g>
    <g clip-path="url(#clippath-51)">
      <rect x="328.9" y="315.8" width="4.7" height="4.9" fill="#63a4ff"/>
    </g>
    <g clip-path="url(#clippath-52)">
      <rect x="333.6" y="315.8" width="4.7" height="4.9" fill="#62a3ff"/>
    </g>
    <g clip-path="url(#clippath-53)">
      <rect x="338.4" y="315.8" width="4.7" height="4.9" fill="#61a2ff"/>
    </g>
    <g clip-path="url(#clippath-54)">
      <rect x="343.1" y="315.8" width="4.7" height="4.9" fill="#60a2ff"/>
    </g>
    <g clip-path="url(#clippath-55)">
      <rect x="347.9" y="315.8" width="4.7" height="4.9" fill="#5fa1ff"/>
    </g>
    <g clip-path="url(#clippath-56)">
      <rect x="352.6" y="315.8" width="4.7" height="4.9" fill="#5ea0ff"/>
    </g>
    <g clip-path="url(#clippath-57)">
      <rect x="357.3" y="315.8" width="4.7" height="4.9" fill="#5d9fff"/>
    </g>
    <g clip-path="url(#clippath-58)">
      <rect x="362.1" y="315.8" width="4.7" height="4.9" fill="#5c9eff"/>
    </g>
    <g clip-path="url(#clippath-59)">
      <rect x="366.8" y="315.8" width="4.7" height="4.9" fill="#5b9eff"/>
    </g>
    <g clip-path="url(#clippath-60)">
      <rect x="371.6" y="315.8" width="4.7" height="4.9" fill="#5a9dff"/>
    </g>
    <g clip-path="url(#clippath-61)">
      <rect x="376.3" y="315.8" width="4.7" height="4.9" fill="#599cff"/>
    </g>
    <g clip-path="url(#clippath-62)">
      <rect x="381" y="315.8" width="4.7" height="4.9" fill="#589bff"/>
    </g>
    <g clip-path="url(#clippath-63)">
      <rect x="385.8" y="315.8" width="4.7" height="4.9" fill="#579bff"/>
    </g>
    <g clip-path="url(#clippath-64)">
      <rect x="390.5" y="315.8" width="4.7" height="4.9" fill="#569aff"/>
    </g>
    <g clip-path="url(#clippath-65)">
      <rect x="395.3" y="315.8" width="4.7" height="4.9" fill="#59f"/>
    </g>
    <g clip-path="url(#clippath-66)">
      <path d="M400,320.7v-4.9,4.9Z" fill="#59f"/>
    </g>
  </g>
  <rect x="321.3" y="419.9" width="267" height="4.9" fill="#ffc955"/>
  <path d="M337.8,274.7c-.9,4.5,1.2,8.6,4.6,9.4,3.5.7,7-2.3,7.9-6.8.9-4.5-1.2-8.6-4.6-9.4-3.5-.7-7,2.3-7.9,6.8Z" fill="#cfa345"/>
  <g>
    <path d="M440.1,269.9s-23.8,22.7-12.2,40.3,17,2.2,17,2.2c0,0,7.8,2.4-3.8-19.4-5.5-10.3-1-23.1-1-23.1Z" fill="#bbd070"/>
    <path d="M396,245.3s-18.2,21.4,6.1,51,20.6,45.3,20.6,45.3c0,0,33.9-51.5-26.7-96.2Z" fill="#97a43c"/>
    <path d="M428.2,332.6c11.3,2.3,2.2-30.6-14.8-40.7-17-10-32.2-11-41.7-20.7,0,0,.7,50.1,56.5,61.3Z" fill="#48753a"/>
  </g>
  <g>
    <path d="M477.3,276.4s11.5-33.6-10.4-44c-21.9-10.4-40.4,4.6-43.9,12.8-3.5,8.1-2.6,23,.4,33.3,3,10.3,2.6,26.1-3.9,31.3-6.5,5.3-14.6,14-14.2,31.8.2,11,43.4-28.2,43.4-28.2l28.6-36.9Z" fill="#252e3b"/>
    <path d="M446.6,316.3s-18,4-25.1,8.1c-7.1,4.2-23,23.3-23,31.6s69.3,15.9,69.3,15.9l13.1,47.9s35-8.5,39.2-15.6c4.2-7.1-13.3-57.9-16.3-68.1-3-10.5-15.6-17.8-30.2-19.8-14.6-2-27,0-27,0Z" fill="#ffd255"/>
    <path d="M472.4,316.2s-.4,21.8-17.7,22.5c-17.3.6-13.7-20.9-13.7-20.9,0,0,12.7-5.1,31.4-1.5Z" fill="#eea886"/>
    <path d="M479.7,250.3s6.1,35.1-11.3,60.5c-18.1,26.3,11.3-60.5,11.3-60.5Z" fill="#252e3b"/>
    <path d="M468.7,300.7s-1.2,10.4.8,16.9c2,6.5-26.5,6.7-26.5,1.3,0-6.1,2.9-11.1.2-21.5-2.7-10.4,25.5,3.3,25.5,3.3Z" fill="#eea886"/>
    <path d="M446.6,302.1s9,9.4,20.5,1c0,0-1,6-9.2,6.8-8.3.8-11.3-7.7-11.3-7.7Z" fill="#a77860"/>
    <path d="M457.8,238.1s22.7,6.7,19.5,38.3c-3.2,31.5-18.1,29.9-19.5,30.2-1.4.2-19,1.4-24.6-36.9-5.6-38.3,24.6-31.6,24.6-31.6Z" fill="#eea886"/>
    <path d="M452,252.2s12.4,19.7,25.4,24.2c0,0,7.1-33-22.2-39.9-29.3-6.9-24.7,33.3-22.5,44,0,0,6.1-15.8,19.4-28.4Z" fill="#252e3b"/>
    <path d="M435.4,249.2s6.5-12.6,17.5-13.2c11-.6,17.5,9,17.5,9,0,0-4.3-10.7-17.5-10.7-13.2,0-17.5,14.9-17.5,14.9Z" fill="#88c0ff"/>
  </g>
  <polygon points="480.1 348.3 487.8 419.9 386.3 419.9 378.6 348.3 480.1 348.3" fill="#5fa0ff"/>
  <path d="M485.4,417.5h-102.4l-7.8-72.6h102.4l7.8,72.6ZM383.8,416.6h100.6l-7.6-70.8h-100.6l7.6,70.8Z" fill="#5fa0ff"/>
  <path d="M439.5,382.9c.9,4.5-1.2,8.6-4.6,9.4-3.5.7-7-2.3-7.9-6.8-.9-4.5,1.2-8.6,4.6-9.4,3.5-.7,7,2.3,7.9,6.8Z" fill="#5189db"/>
  <rect x="478.2" y="412.7" width="18.9" height="7.2" fill="#5fa0ff"/>
  <path d="M419.3,204.7c-8.6,0-15.6-7-15.6-15.6s7-15.6,15.6-15.6,15.6,7,15.6,15.6c0,8.6-7,15.6-15.6,15.6ZM419.3,174.4c-8.1,0-14.7,6.6-14.7,14.7s6.6,14.7,14.7,14.7,14.7-6.6,14.7-14.7c0-8.1-6.6-14.7-14.7-14.7Z" fill="#64a4ff"/>
</svg>